<svg width="603" height="384" viewBox="0 0 603 384" fill="none" xmlns="http://www.w3.org/2000/svg">
<path fill-rule="evenodd" clip-rule="evenodd" d="M31.5 42.49H571.5C579.456 42.49 587.087 45.6506 592.713 51.2767C598.339 56.9028 601.5 64.5335 601.5 72.49V312.49C601.5 320.446 598.339 328.077 592.713 333.703C587.087 339.329 579.456 342.49 571.5 342.49H31.5C23.5435 342.49 15.9129 339.329 10.2868 333.703C4.66071 328.077 1.5 320.446 1.5 312.49V72.49C1.5 64.5335 4.66071 56.9028 10.2868 51.2767C15.9129 45.6506 23.5435 42.49 31.5 42.49Z" fill="#F4FAFD" stroke="#27A9E1" stroke-width="3"/>
<path fill-rule="evenodd" clip-rule="evenodd" d="M116.58 42.96C116.58 33.98 109.79 26.45 99.1098 25.97C101.964 17.7458 106.996 10.4501 113.67 4.85999L110.52 0C93.7698 7.53 81.8788 23.5399 81.8788 39.3199C81.8788 50.7199 88.6738 59.46 100.323 59.46C104.659 59.4036 108.798 57.6395 111.842 54.5504C114.885 51.4613 116.588 47.2965 116.58 42.96ZM72.4968 42.96C72.4968 33.98 65.4588 26.45 54.7808 25.97C57.6344 17.7454 62.6666 10.4494 69.3408 4.85999L66.4308 0C49.4428 7.53 37.5498 23.5399 37.5498 39.3199C37.5498 50.7199 44.3498 59.46 55.9938 59.46C60.3563 59.4142 64.5272 57.6613 67.6126 54.577C70.698 51.4927 72.4525 47.3224 72.4998 42.96H72.4968Z" fill="#27A9E1"/>
<path fill-rule="evenodd" clip-rule="evenodd" d="M496.51 340.86C496.51 349.77 503.3 357.23 513.98 357.72C511.115 365.891 506.082 373.129 499.42 378.66L502.58 383.48C519.31 376.01 531.2 360.12 531.2 344.47C531.2 333.16 524.41 324.49 512.76 324.49C508.441 324.529 504.313 326.271 501.271 329.335C498.228 332.4 496.517 336.541 496.51 340.86ZM540.58 340.86C540.58 349.77 547.61 357.23 558.29 357.72C555.425 365.891 550.392 373.129 543.73 378.66L546.64 383.48C563.62 376.01 575.51 360.12 575.51 344.47C575.51 333.16 568.72 324.49 557.08 324.49C552.735 324.518 548.573 326.247 545.489 329.307C542.404 332.368 540.642 336.515 540.58 340.86Z" fill="#27A9E1"/>
</svg>
